<svg width="5696" height="909" viewBox="0 0 5696 909" fill="none" xmlns="http://www.w3.org/2000/svg">
<path d="M3807.05 736.588C3791.05 736.588 3777.25 731.188 3765.65 720.388C3754.45 709.188 3748.85 694.988 3748.85 677.788C3748.85 660.588 3754.45 646.788 3765.65 636.388C3777.25 625.588 3791.05 620.188 3807.05 620.188C3823.45 620.188 3837.25 625.588 3848.45 636.388C3859.65 646.788 3865.25 660.588 3865.25 677.788C3865.25 694.988 3859.65 709.188 3848.45 720.388C3837.25 731.188 3823.45 736.588 3807.05 736.588Z" fill="#DF6D40"/>
<path d="M4037.28 736.588C4009.68 736.588 3983.08 733.388 3957.48 726.988C3932.28 720.188 3912.28 711.788 3897.48 701.788L3928.68 634.588C3943.48 643.788 3960.88 651.388 3980.88 657.388C4001.28 662.988 4021.28 665.788 4040.88 665.788C4062.48 665.788 4077.68 663.188 4086.48 657.988C4095.68 652.788 4100.28 645.588 4100.28 636.388C4100.28 628.788 4096.68 623.188 4089.48 619.588C4082.68 615.588 4073.48 612.588 4061.88 610.588C4050.28 608.588 4037.48 606.588 4023.48 604.588C4009.88 602.588 3996.08 599.988 3982.08 596.788C3968.08 593.188 3955.28 587.988 3943.68 581.188C3932.08 574.388 3922.68 565.188 3915.48 553.588C3908.68 541.988 3905.28 526.988 3905.28 508.588C3905.28 488.188 3911.08 470.188 3922.68 454.588C3934.68 438.988 3951.88 426.788 3974.28 417.988C3996.68 408.788 4023.48 404.188 4054.68 404.188C4076.68 404.188 4099.08 406.588 4121.88 411.388C4144.68 416.188 4163.68 423.188 4178.88 432.388L4147.68 498.988C4132.08 489.788 4116.28 483.588 4100.28 480.388C4084.68 476.788 4069.48 474.988 4054.68 474.988C4033.88 474.988 4018.68 477.788 4009.08 483.388C3999.48 488.988 3994.68 496.188 3994.68 504.988C3994.68 512.988 3998.08 518.988 4004.88 522.988C4012.08 526.988 4021.48 530.188 4033.08 532.588C4044.68 534.988 4057.28 537.188 4070.88 539.188C4084.88 540.788 4098.88 543.388 4112.88 546.988C4126.88 550.588 4139.48 555.788 4150.68 562.588C4162.28 568.988 4171.68 577.988 4178.88 589.588C4186.08 600.788 4189.68 615.588 4189.68 633.988C4189.68 653.988 4183.68 671.788 4171.68 687.388C4159.68 702.588 4142.28 714.588 4119.48 723.388C4097.08 732.188 4069.68 736.588 4037.28 736.588Z" fill="#DF6D40"/>
<path d="M4438.23 736.588C4411.03 736.588 4387.23 730.588 4366.83 718.588C4346.43 706.588 4330.43 688.388 4318.83 663.988C4307.63 639.188 4302.03 607.988 4302.03 570.388C4302.03 532.388 4307.43 501.188 4318.23 476.788C4329.03 452.388 4344.63 434.188 4365.03 422.188C4385.43 410.188 4409.83 404.188 4438.23 404.188C4468.63 404.188 4495.83 411.188 4519.83 425.188C4544.23 438.788 4563.43 457.988 4577.43 482.788C4591.83 507.588 4599.03 536.788 4599.03 570.388C4599.03 604.388 4591.83 633.788 4577.43 658.588C4563.43 683.388 4544.23 702.588 4519.83 716.188C4495.83 729.788 4468.63 736.588 4438.23 736.588ZM4247.43 848.188V408.988H4336.83V474.988L4335.03 570.988L4341.03 666.388V848.188H4247.43ZM4422.03 659.788C4437.63 659.788 4451.43 656.188 4463.43 648.988C4475.83 641.788 4485.63 631.588 4492.83 618.388C4500.43 604.788 4504.23 588.788 4504.23 570.388C4504.23 551.588 4500.43 535.588 4492.83 522.388C4485.63 509.188 4475.83 498.988 4463.43 491.788C4451.43 484.588 4437.63 480.988 4422.03 480.988C4406.43 480.988 4392.43 484.588 4380.03 491.788C4367.63 498.988 4357.83 509.188 4350.63 522.388C4343.43 535.588 4339.83 551.588 4339.83 570.388C4339.83 588.788 4343.43 604.788 4350.63 618.388C4357.83 631.588 4367.63 641.788 4380.03 648.988C4392.43 656.188 4406.43 659.788 4422.03 659.788Z" fill="#DF6D40"/>
<path d="M4854.41 731.788V668.788L4848.41 654.988V542.188C4848.41 522.188 4842.21 506.588 4829.81 495.388C4817.81 484.188 4799.21 478.588 4774.01 478.588C4756.81 478.588 4739.81 481.388 4723.01 486.988C4706.61 492.188 4692.61 499.388 4681.01 508.588L4647.41 443.188C4665.01 430.788 4686.21 421.188 4711.01 414.388C4735.81 407.588 4761.01 404.188 4786.61 404.188C4835.81 404.188 4874.01 415.788 4901.21 438.988C4928.41 462.188 4942.01 498.388 4942.01 547.588V731.788H4854.41ZM4756.01 736.588C4730.81 736.588 4709.21 732.388 4691.21 723.988C4673.21 715.188 4659.41 703.388 4649.81 688.588C4640.21 673.788 4635.41 657.188 4635.41 638.788C4635.41 619.588 4640.01 602.788 4649.21 588.388C4658.81 573.988 4673.81 562.788 4694.21 554.788C4714.61 546.388 4741.21 542.188 4774.01 542.188H4859.81V596.788H4784.21C4762.21 596.788 4747.01 600.388 4738.61 607.588C4730.61 614.788 4726.61 623.788 4726.61 634.588C4726.61 646.588 4731.21 656.188 4740.41 663.388C4750.01 670.188 4763.01 673.588 4779.41 673.588C4795.01 673.588 4809.01 669.988 4821.41 662.788C4833.81 655.188 4842.81 644.188 4848.41 629.788L4862.81 672.988C4856.01 693.788 4843.61 709.588 4825.61 720.388C4807.61 731.188 4784.41 736.588 4756.01 736.588Z" fill="#DF6D40"/>
<path d="M5185.07 736.588C5150.27 736.588 5119.27 729.588 5092.07 715.588C5064.87 701.188 5043.47 681.388 5027.87 656.188C5012.67 630.988 5005.07 602.388 5005.07 570.388C5005.07 537.988 5012.67 509.388 5027.87 484.588C5043.47 459.388 5064.87 439.788 5092.07 425.788C5119.27 411.388 5150.27 404.188 5185.07 404.188C5219.07 404.188 5248.67 411.388 5273.87 425.788C5299.07 439.788 5317.67 459.988 5329.67 486.388L5257.07 525.388C5248.67 510.188 5238.07 498.988 5225.27 491.788C5212.87 484.588 5199.27 480.988 5184.47 480.988C5168.47 480.988 5154.07 484.588 5141.27 491.788C5128.47 498.988 5118.27 509.188 5110.67 522.388C5103.47 535.588 5099.87 551.588 5099.87 570.388C5099.87 589.188 5103.47 605.188 5110.67 618.388C5118.27 631.588 5128.47 641.788 5141.27 648.988C5154.07 656.188 5168.47 659.788 5184.47 659.788C5199.27 659.788 5212.87 656.388 5225.27 649.588C5238.07 642.388 5248.67 630.988 5257.07 615.388L5329.67 654.988C5317.67 680.988 5299.07 701.188 5273.87 715.588C5248.67 729.588 5219.07 736.588 5185.07 736.588Z" fill="#DF6D40"/>
<path d="M5539.66 736.588C5502.86 736.588 5470.46 729.388 5442.46 714.988C5414.86 700.588 5393.46 680.988 5378.26 656.188C5363.06 630.988 5355.46 602.388 5355.46 570.388C5355.46 537.988 5362.86 509.388 5377.66 484.588C5392.86 459.388 5413.46 439.788 5439.46 425.788C5465.46 411.388 5494.86 404.188 5527.66 404.188C5559.26 404.188 5587.66 410.988 5612.86 424.588C5638.46 437.788 5658.66 456.988 5673.46 482.188C5688.26 506.988 5695.66 536.788 5695.66 571.588C5695.66 575.188 5695.46 579.388 5695.06 584.188C5694.66 588.588 5694.26 592.788 5693.86 596.788H5431.66V542.188H5644.66L5608.66 558.388C5608.66 541.588 5605.26 526.988 5598.46 514.588C5591.66 502.188 5582.26 492.588 5570.26 485.788C5558.26 478.588 5544.26 474.988 5528.26 474.988C5512.26 474.988 5498.06 478.588 5485.66 485.788C5473.66 492.588 5464.26 502.388 5457.46 515.188C5450.66 527.588 5447.26 542.388 5447.26 559.588V573.988C5447.26 591.588 5451.06 607.188 5458.66 620.788C5466.66 633.988 5477.66 644.188 5491.66 651.388C5506.06 658.188 5522.86 661.588 5542.06 661.588C5559.26 661.588 5574.26 658.988 5587.06 653.788C5600.26 648.588 5612.26 640.788 5623.06 630.388L5672.86 684.388C5658.06 701.188 5639.46 714.188 5617.06 723.388C5594.66 732.188 5568.86 736.588 5539.66 736.588Z" fill="#DF6D40"/>
<path d="M1204.3 679.736V257.967H1386.87C1424.62 257.967 1457.16 264.193 1484.47 276.646C1511.79 288.696 1532.88 306.169 1547.74 329.065C1562.6 351.961 1570.03 379.276 1570.03 411.009C1570.03 442.34 1562.6 469.454 1547.74 492.35C1532.88 515.246 1511.79 532.92 1484.47 545.372C1457.16 557.423 1424.62 563.448 1386.87 563.448H1258.53L1301.91 519.464V679.736H1204.3ZM1301.91 530.309L1258.53 483.915H1381.44C1411.57 483.915 1434.06 477.488 1448.93 464.634C1463.79 451.78 1471.22 433.905 1471.22 411.009C1471.22 387.711 1463.79 369.636 1448.93 356.782C1434.06 343.928 1411.57 337.501 1381.44 337.501H1258.53L1301.91 291.106V530.309ZM1786.75 684.556C1752.2 684.556 1721.48 677.326 1694.56 662.865C1668.05 648.404 1646.96 628.722 1631.3 603.818C1616.03 578.511 1608.4 549.791 1608.4 517.656C1608.4 485.12 1616.03 456.399 1631.3 431.495C1646.96 406.189 1668.05 386.506 1694.56 372.447C1721.48 357.987 1752.2 350.756 1786.75 350.756C1820.89 350.756 1851.42 357.987 1878.33 372.447C1905.25 386.506 1926.33 405.988 1941.6 430.892C1956.86 455.797 1964.49 484.718 1964.49 517.656C1964.49 549.791 1956.86 578.511 1941.6 603.818C1926.33 628.722 1905.25 648.404 1878.33 662.865C1851.42 677.326 1820.89 684.556 1786.75 684.556ZM1786.75 607.433C1802.41 607.433 1816.47 603.817 1828.93 596.587C1841.38 589.357 1851.22 579.114 1858.45 565.858C1865.68 552.201 1869.3 536.134 1869.3 517.656C1869.3 498.777 1865.68 482.71 1858.45 469.454C1851.22 456.199 1841.38 445.956 1828.93 438.725C1816.47 431.495 1802.41 427.88 1786.75 427.88C1771.08 427.88 1757.02 431.495 1744.57 438.725C1732.12 445.956 1722.08 456.199 1714.45 469.454C1707.22 482.71 1703.6 498.777 1703.6 517.656C1703.6 536.134 1707.22 552.201 1714.45 565.858C1722.08 579.114 1732.12 589.357 1744.57 596.587C1757.02 603.817 1771.08 607.433 1786.75 607.433ZM2136.38 684.556C2108.66 684.556 2081.95 681.343 2056.24 674.916C2030.94 668.087 2010.85 659.652 1995.99 649.609L2027.32 582.127C2042.19 591.365 2059.66 598.997 2079.74 605.023C2100.23 610.646 2120.31 613.458 2140 613.458C2161.69 613.458 2176.95 610.847 2185.79 605.625C2195.03 600.403 2199.65 593.173 2199.65 583.934C2199.65 576.302 2196.03 570.679 2188.8 567.063C2181.97 563.047 2172.73 560.034 2161.08 558.026C2149.43 556.017 2136.58 554.009 2122.52 552C2108.86 549.992 2095.01 547.381 2080.95 544.167C2066.89 540.552 2054.03 535.33 2042.39 528.502C2030.74 521.673 2021.3 512.434 2014.07 500.785C2007.24 489.137 2003.82 474.073 2003.82 455.596C2003.82 435.11 2009.65 417.034 2021.3 401.369C2033.35 385.703 2050.62 373.452 2073.11 364.615C2095.61 355.376 2122.52 350.756 2153.85 350.756C2175.95 350.756 2198.44 353.167 2221.34 357.987C2244.23 362.807 2263.31 369.836 2278.58 379.075L2247.24 445.956C2231.58 436.717 2215.71 430.491 2199.65 427.277C2183.98 423.662 2168.72 421.855 2153.85 421.855C2132.97 421.855 2117.7 424.666 2108.06 430.29C2098.42 435.913 2093.6 443.144 2093.6 451.981C2093.6 460.015 2097.02 466.04 2103.84 470.057C2111.07 474.073 2120.51 477.287 2132.16 479.697C2143.81 482.107 2156.46 484.316 2170.12 486.325C2184.18 487.932 2198.24 490.543 2212.3 494.158C2226.36 497.773 2239.01 502.995 2250.26 509.823C2261.91 516.25 2271.35 525.288 2278.58 536.937C2285.81 548.184 2289.42 563.047 2289.42 581.524C2289.42 601.608 2283.4 619.483 2271.35 635.149C2259.3 650.413 2241.82 662.463 2218.93 671.3C2196.43 680.137 2168.92 684.556 2136.38 684.556ZM2479.97 684.556C2441.81 684.556 2412.09 674.916 2390.8 655.635C2369.51 635.952 2358.86 606.83 2358.86 568.268V283.876H2452.86V567.063C2452.86 580.721 2456.47 591.365 2463.7 598.997C2470.93 606.228 2480.77 609.843 2493.23 609.843C2508.09 609.843 2520.74 605.826 2531.19 597.792L2556.49 664.07C2546.85 670.899 2535.2 676.121 2521.55 679.736C2508.29 682.949 2494.43 684.556 2479.97 684.556ZM2308.85 435.11V362.807H2533.6V435.11H2308.85ZM2760.12 684.556C2723.17 684.556 2690.63 677.326 2662.51 662.865C2634.8 648.404 2613.31 628.722 2598.04 603.818C2582.78 578.511 2575.15 549.791 2575.15 517.656C2575.15 485.12 2582.58 456.399 2597.44 431.495C2612.7 406.189 2633.39 386.506 2659.5 372.447C2685.61 357.987 2715.13 350.756 2748.07 350.756C2779.81 350.756 2808.32 357.585 2833.63 371.242C2859.34 384.498 2879.62 403.779 2894.49 429.085C2909.35 453.989 2916.78 483.915 2916.78 518.861C2916.78 522.476 2916.58 526.694 2916.18 531.514C2915.78 535.933 2915.37 540.151 2914.97 544.167H2651.67V489.337H2865.56L2829.41 505.606C2829.41 488.735 2826 474.073 2819.17 461.621C2812.34 449.169 2802.9 439.529 2790.85 432.7C2778.8 425.47 2764.74 421.855 2748.68 421.855C2732.61 421.855 2718.35 425.47 2705.9 432.7C2693.84 439.529 2684.41 449.37 2677.58 462.224C2670.75 474.676 2667.33 489.538 2667.33 506.811V521.271C2667.33 538.945 2671.15 554.611 2678.78 568.268C2686.82 581.524 2697.86 591.767 2711.92 598.997C2726.38 605.826 2743.25 609.24 2762.53 609.24C2779.81 609.24 2794.87 606.629 2807.72 601.407C2820.98 596.185 2833.03 588.353 2843.87 577.909L2893.88 632.136C2879.02 649.007 2860.34 662.062 2837.85 671.3C2815.35 680.137 2789.45 684.556 2760.12 684.556ZM2979.37 679.736V355.577H3069.14V447.161L3056.49 420.649C3066.13 397.753 3081.6 380.481 3102.89 368.832C3124.17 356.782 3150.08 350.756 3180.61 350.756V437.52C3176.59 437.119 3172.98 436.918 3169.77 436.918C3166.55 436.516 3163.14 436.315 3159.52 436.315C3133.81 436.315 3112.93 443.746 3096.86 458.609C3081.19 473.069 3073.36 495.764 3073.36 526.694V679.736H2979.37ZM3250.3 679.736V348.346C3250.3 311.793 3261.15 282.671 3282.84 260.98C3304.53 238.887 3335.46 227.841 3375.63 227.841C3389.29 227.841 3402.34 229.247 3414.79 232.059C3427.65 234.871 3438.49 239.289 3447.33 245.314L3422.63 313.4C3417.4 309.785 3411.58 306.973 3405.15 304.964C3398.73 302.956 3391.9 301.952 3384.67 301.952C3371.01 301.952 3360.36 305.969 3352.73 314.002C3345.5 321.634 3341.89 333.283 3341.89 348.949V379.075L3344.3 419.444V679.736H3250.3ZM3200.29 435.11V362.807H3425.04V435.11H3200.29ZM3518.7 801.446C3501.83 801.446 3485.16 798.835 3468.69 793.613C3452.22 788.391 3438.77 781.161 3428.32 771.922L3462.67 705.042C3469.9 711.469 3478.13 716.49 3487.37 720.105C3497.01 723.72 3506.45 725.528 3515.69 725.528C3528.95 725.528 3539.39 722.314 3547.02 715.887C3555.06 709.862 3562.29 699.619 3568.71 685.159L3585.58 645.392L3592.81 635.149L3709.1 355.577H3799.48L3653.07 699.619C3642.62 725.729 3630.57 746.215 3616.92 761.077C3603.66 775.939 3588.8 786.383 3572.33 792.408C3556.26 798.433 3538.39 801.446 3518.7 801.446ZM3574.14 692.389L3429.53 355.577H3526.54L3638.61 626.714L3574.14 692.389Z" fill="#DF6D40"/>
<path d="M909.268 511.013V608.043H802.485V711.542H711.89V811.802H608.343V908.831H394.77V811.802H291.226V711.542H200.63V608.045H93.8396V511.013H0V97.0291H103.546V0H417.42V100.264H585.686V0H899.559V97.0291H1003.11V511.013H909.268ZM501.553 233.204C469.526 233.224 437.901 240.341 408.955 254.048C380.008 267.758 354.464 287.712 334.156 312.478C313.849 337.245 299.285 366.206 291.515 397.277C283.745 428.347 282.959 460.753 289.218 492.164C295.474 523.574 308.619 553.205 327.704 578.926C346.789 604.646 371.34 625.815 399.588 640.908C427.834 656.001 459.077 664.643 491.067 666.209C523.056 667.778 554.995 662.232 584.584 649.976C624.165 633.577 657.991 605.811 681.791 570.187C705.591 534.562 718.294 492.682 718.292 449.839C718.282 406.982 705.561 365.092 681.744 329.465C657.926 293.835 624.077 266.071 584.481 249.68C558.188 238.797 530.01 233.199 501.553 233.204ZM501.553 611.552C478.547 611.542 455.826 606.431 435.032 596.585C414.239 586.741 395.885 572.406 381.296 554.616C366.708 536.824 356.246 516.022 350.665 493.701C345.082 471.382 344.52 448.102 349.016 425.538C353.256 404.233 361.91 384.054 374.42 366.297C386.93 348.54 403.02 333.597 421.653 322.433C440.289 311.268 461.051 304.131 482.611 301.475C504.169 298.819 526.046 300.709 546.83 307.018C567.618 313.327 586.851 323.919 603.295 338.111C619.741 352.303 633.032 369.779 642.316 389.419C651.597 409.056 656.666 430.42 657.193 452.137C657.72 473.853 653.696 495.438 645.379 515.505C633.589 543.941 613.633 568.243 588.033 585.34C562.433 602.437 532.337 611.557 501.553 611.552ZM501.553 343.047C479.227 343.054 457.403 349.684 438.843 362.097C420.285 374.509 405.822 392.145 397.288 412.776C388.75 433.408 386.521 456.106 390.882 478.003C395.245 499.899 406.002 520.011 421.796 535.792C440.269 554.252 464.571 565.738 490.562 568.291C516.553 570.844 542.625 564.307 564.336 549.794C586.047 535.28 602.057 513.69 609.636 488.697C617.213 463.705 615.892 436.857 605.896 412.731C597.342 392.1 582.864 374.468 564.291 362.066C545.718 349.662 523.887 343.044 501.553 343.047ZM503.17 498.079C494.536 498.074 486.096 495.511 478.918 490.711C471.738 485.911 466.145 479.09 462.843 471.111C459.542 463.133 458.681 454.353 460.368 445.885C462.055 437.417 466.217 429.64 472.326 423.534C478.434 417.434 486.211 413.279 494.682 411.597C503.15 409.915 511.927 410.781 519.902 414.085C527.878 417.391 534.697 422.984 539.495 430.164C544.292 437.342 546.853 445.782 546.856 454.416C546.853 463.055 544.29 471.498 539.49 478.68C534.689 485.86 527.866 491.456 519.885 494.76C514.585 496.954 508.906 498.082 503.17 498.079Z" fill="#DF6D40"/>
</svg>
