<svg width="1789" height="320" viewBox="0 0 1789 320" fill="none" xmlns="http://www.w3.org/2000/svg">
<path d="M173.792 144.924C176.767 144.332 179.85 144.637 182.652 145.8C185.454 146.964 187.85 148.933 189.535 151.461C191.221 153.988 192.12 156.96 192.121 160C192.12 163.042 191.22 166.015 189.533 168.544C187.847 171.072 185.45 173.042 182.646 174.205C180.785 174.978 178.789 175.375 176.773 175.374C173.74 175.372 170.775 174.469 168.254 172.779C165.732 171.089 163.766 168.688 162.606 165.879C161.447 163.07 161.144 159.978 161.736 156.996C162.329 154.015 163.792 151.277 165.938 149.127C168.083 146.979 170.816 145.516 173.792 144.924Z" fill="#DF6D40"/>
<path fill-rule="evenodd" clip-rule="evenodd" d="M169.551 106.149C177.124 105.214 184.81 105.88 192.112 108.102C199.415 110.323 206.172 114.052 211.949 119.049C217.727 124.046 222.397 130.199 225.658 137.114C228.919 144.029 230.7 151.551 230.885 159.197C231.07 166.843 229.656 174.444 226.734 181.51C222.592 191.522 215.582 200.079 206.588 206.099C197.594 212.118 187.021 215.33 176.206 215.328C168.123 215.325 160.141 213.524 152.835 210.058C145.53 206.592 139.082 201.544 133.957 195.28C128.832 189.016 125.157 181.691 123.196 173.832C121.235 165.974 121.037 157.777 122.616 149.832C124.106 142.331 127.146 135.226 131.541 128.974C135.936 122.721 141.589 117.459 148.135 113.528C154.682 109.597 161.976 107.085 169.551 106.149ZM176.206 120.787C168.362 120.79 160.694 123.124 154.174 127.494C147.654 131.864 142.573 138.075 139.575 145.339C136.576 152.603 135.792 160.595 137.324 168.305C138.857 176.014 142.637 183.096 148.186 188.652C154.675 195.152 163.213 199.197 172.345 200.096C181.476 200.995 190.635 198.693 198.263 193.583C205.89 188.473 211.515 180.87 214.178 172.07C216.839 163.271 216.375 153.818 212.863 145.323C209.858 138.059 204.772 131.85 198.247 127.483C191.722 123.116 184.052 120.786 176.206 120.787Z" fill="#DF6D40"/>
<path fill-rule="evenodd" clip-rule="evenodd" d="M146.648 35.3027H205.764V0H316.033V34.1641H352.411V179.928H319.444V214.092H281.929V250.534H250.102V285.836H213.724V320H138.69V285.836H102.313V250.534H70.4854V214.093H32.9678V179.928H0V34.1641H36.3779V0H146.648V35.3027ZM176.206 82.1113C164.954 82.1184 153.843 84.6238 143.674 89.4502C133.504 94.2775 124.53 101.303 117.396 110.023C110.261 118.744 105.145 128.941 102.415 139.881C99.6853 150.821 99.4096 162.231 101.608 173.291C103.806 184.35 108.424 194.784 115.129 203.84C121.834 212.896 130.46 220.35 140.384 225.664C150.307 230.978 161.283 234.021 172.521 234.572C183.76 235.125 194.981 233.172 205.376 228.856C219.282 223.082 231.166 213.306 239.527 200.763C247.889 188.219 252.351 173.473 252.351 158.389C252.347 143.299 247.877 128.549 239.51 116.005C231.142 103.46 219.251 93.6835 205.34 87.9121C196.103 84.0802 186.203 82.1096 176.206 82.1113Z" fill="#DF6D40"/>
<path d="M1270.91 202.713L1303.08 125.198H1334.83L1283.4 246.336C1279.73 255.529 1275.49 262.743 1270.7 267.976C1266.04 273.209 1260.82 276.886 1255.03 279.008C1249.39 281.129 1243.11 282.189 1236.19 282.189C1230.26 282.189 1224.41 281.27 1218.62 279.432C1212.84 277.593 1208.11 275.047 1204.44 271.794L1216.5 248.245C1219.05 250.508 1221.94 252.277 1225.18 253.55C1228.57 254.823 1231.89 255.459 1235.13 255.459C1239.79 255.459 1243.46 254.327 1246.14 252.064C1248.96 249.943 1251.5 246.336 1253.76 241.245L1254.17 240.287L1204.86 125.198H1238.94L1270.91 202.713Z" fill="#DF6D40"/>
<path fill-rule="evenodd" clip-rule="evenodd" d="M1446.4 122.488C1453.59 122.488 1460.44 124.406 1466.92 128.241C1473.46 132.076 1478.76 138.114 1482.83 146.353C1486.95 154.591 1489.01 165.291 1489.01 178.454C1489.01 191.049 1487.05 201.489 1483.12 209.775C1479.23 218.061 1474.03 224.241 1467.49 228.312C1461 232.384 1453.88 234.421 1446.11 234.421C1441 234.421 1436.43 233.592 1432.41 231.935C1428.43 230.23 1425.02 227.934 1422.18 225.046C1419.39 222.11 1417.23 218.796 1415.72 215.103H1415.15V273.909H1375.94V123.909H1414.86V142.943H1415.72C1417.14 139.25 1419.22 135.865 1421.97 132.787C1424.71 129.662 1428.12 127.176 1432.19 125.329C1436.27 123.435 1441 122.488 1446.4 122.488ZM1431.62 152.603C1428.03 152.603 1424.93 153.644 1422.32 155.728C1419.76 157.764 1417.78 160.723 1416.36 164.605C1414.98 168.441 1414.3 173.057 1414.3 178.454C1414.3 183.757 1414.98 188.351 1416.36 192.233C1417.78 196.068 1419.76 199.051 1422.32 201.182C1424.93 203.265 1428.03 204.307 1431.62 204.307C1435.22 204.307 1438.28 203.289 1440.79 201.253C1443.34 199.17 1445.28 196.21 1446.61 192.375C1447.98 188.492 1448.67 183.852 1448.67 178.454C1448.67 173.057 1447.98 168.441 1446.61 164.605C1445.28 160.723 1443.34 157.764 1440.79 155.728C1438.28 153.644 1435.22 152.603 1431.62 152.603Z" fill="#DF6D40"/>
<path d="M1337.49 218.369C1343.25 218.369 1348.1 220.27 1352.04 224.072C1355.97 227.734 1357.94 232.593 1357.94 238.649C1357.94 244.706 1355.97 249.706 1352.04 253.649C1348.1 257.452 1343.25 259.354 1337.49 259.354C1331.87 259.353 1327.02 257.452 1322.95 253.649C1319.01 249.706 1317.05 244.706 1317.05 238.649C1317.05 232.593 1319.01 227.734 1322.95 224.072C1327.02 220.27 1331.87 218.369 1337.49 218.369Z" fill="#DF6D40"/>
<path fill-rule="evenodd" clip-rule="evenodd" d="M627.721 123.502C639.716 123.502 650.441 126.047 659.896 131.139C669.351 136.089 676.761 142.949 682.123 151.718C687.485 160.486 690.166 170.669 690.166 182.267C690.166 193.581 687.486 203.694 682.123 212.604C676.761 221.373 669.351 228.304 659.896 233.396C650.441 238.487 639.716 241.032 627.721 241.032C615.585 241.032 604.789 238.487 595.334 233.396C586.02 228.304 578.611 221.373 573.107 212.604C567.745 203.694 565.063 193.581 565.063 182.267C565.064 170.811 567.745 160.698 573.107 151.93C578.611 143.019 586.02 136.089 595.334 131.139C604.789 126.047 615.585 123.502 627.721 123.502ZM627.721 150.656C622.217 150.656 617.278 151.93 612.903 154.476C608.529 157.021 605.001 160.628 602.319 165.295C599.779 169.962 598.509 175.619 598.509 182.267C598.509 188.773 599.779 194.431 602.319 199.239C605.001 203.906 608.529 207.513 612.903 210.059C617.278 212.604 622.217 213.877 627.721 213.877C633.224 213.877 638.163 212.604 642.538 210.059C646.913 207.513 650.371 203.907 652.911 199.239C655.451 194.431 656.721 188.773 656.721 182.267C656.721 175.619 655.451 169.962 652.911 165.295C650.371 160.628 646.913 157.021 642.538 154.476C638.163 151.93 633.224 150.656 627.721 150.656Z" fill="#DF6D40"/>
<path d="M756.692 123.502C764.454 123.502 772.357 124.35 780.4 126.047C788.444 127.744 795.147 130.22 800.51 133.473L789.502 157.021C783.998 153.769 778.424 151.576 772.779 150.444C767.276 149.172 761.914 148.535 756.692 148.535C749.354 148.535 743.991 149.525 740.604 151.505C737.218 153.485 735.524 156.031 735.524 159.143C735.524 161.971 736.724 164.093 739.123 165.507C741.663 166.921 744.979 168.053 749.071 168.901C753.164 169.75 757.609 170.528 762.407 171.235C767.346 171.801 772.286 172.72 777.225 173.993C782.164 175.266 786.609 177.105 790.561 179.509C794.653 181.772 797.97 184.954 800.51 189.056C803.05 193.016 804.32 198.249 804.32 204.755C804.32 211.827 802.203 218.121 797.97 223.637C793.736 229.011 787.597 233.254 779.554 236.365C771.651 239.477 761.984 241.032 750.554 241.032C740.817 241.032 731.432 239.901 722.4 237.638C713.51 235.233 706.454 232.263 701.232 228.728L712.239 204.967C717.461 208.22 723.599 210.907 730.655 213.028C737.852 215.008 744.908 215.999 751.823 215.999C759.444 215.999 764.806 215.08 767.911 213.241C771.157 211.403 772.779 208.856 772.779 205.604C772.779 202.916 771.51 200.936 768.97 199.663C766.571 198.249 763.325 197.189 759.232 196.481C755.14 195.774 750.624 195.067 745.685 194.359C740.887 193.652 736.018 192.733 731.079 191.602C726.14 190.329 721.624 188.49 717.531 186.086C713.439 183.682 710.122 180.429 707.582 176.327C705.183 172.226 703.983 166.922 703.983 160.416C703.983 153.203 706.03 146.838 710.122 141.322C714.356 135.806 720.424 131.492 728.327 128.381C736.23 125.128 745.685 123.502 756.692 123.502Z" fill="#DF6D40"/>
<path d="M861.738 127.744H890.104V153.202H861.738V199.663C861.738 204.472 863.008 208.22 865.548 210.907C868.088 213.453 871.546 214.726 875.921 214.726C881.142 214.726 885.588 213.312 889.257 210.483L898.147 233.819C894.761 236.224 890.668 238.062 885.87 239.335C881.212 240.466 876.344 241.032 871.264 241.032C857.858 241.032 847.415 237.638 839.936 230.85C832.456 223.919 828.716 213.665 828.716 200.088V153.202H811.146V127.744H828.716V99.9531H861.738V127.744Z" fill="#DF6D40"/>
<path fill-rule="evenodd" clip-rule="evenodd" d="M965.453 123.502C976.602 123.502 986.621 125.906 995.512 130.715C1004.54 135.382 1011.67 142.171 1016.89 151.081C1022.11 159.85 1024.72 170.387 1024.72 182.691C1024.72 183.964 1024.65 185.449 1024.51 187.146C1024.37 188.702 1024.23 190.187 1024.09 191.602H937.923C938.588 194.64 939.65 197.469 941.11 200.088C943.933 204.755 947.813 208.362 952.752 210.907C957.832 213.312 963.76 214.514 970.533 214.514C976.601 214.514 981.893 213.594 986.409 211.756C991.066 209.917 995.3 207.16 999.11 203.482L1016.68 222.575C1011.46 228.515 1004.9 233.112 996.993 236.365C989.09 239.477 979.988 241.032 969.687 241.032C956.704 241.032 945.273 238.487 935.395 233.396C925.657 228.304 918.108 221.373 912.745 212.604C907.383 203.694 904.701 193.581 904.701 182.267C904.701 170.811 907.312 160.698 912.533 151.93C917.896 143.019 925.163 136.089 934.336 131.139C943.509 126.047 953.881 123.502 965.453 123.502ZM965.665 148.535C960.02 148.535 955.01 149.808 950.636 152.354C946.402 154.758 943.086 158.223 940.687 162.749C939.139 165.578 938.091 168.76 937.542 172.296H993.622C993.087 168.7 992.024 165.447 990.432 162.537C988.033 158.153 984.716 154.758 980.482 152.354C976.249 149.808 971.31 148.535 965.665 148.535Z" fill="#DF6D40"/>
<path fill-rule="evenodd" clip-rule="evenodd" d="M487.233 90.8301C500.499 90.8301 511.929 93.0229 521.525 97.4072C531.122 101.65 538.531 107.803 543.752 115.864C548.973 123.926 551.584 133.544 551.584 144.717C551.584 155.748 548.973 165.295 543.752 173.356C538.531 181.418 531.122 187.642 521.525 192.026C511.929 196.269 500.498 198.391 487.233 198.391H457.387V239.335H423.095V90.8301H487.233ZM457.387 170.387H485.328C495.912 170.387 503.815 168.123 509.036 163.598C514.257 159.072 516.869 152.778 516.869 144.717C516.869 136.514 514.258 130.149 509.036 125.623C503.815 121.097 495.912 118.834 485.328 118.834H457.387V170.387Z" fill="#DF6D40"/>
<path d="M1117.41 154.051C1116 153.909 1114.73 153.839 1113.6 153.839C1112.47 153.697 1111.27 153.627 1110 153.627C1100.97 153.627 1093.63 156.244 1087.99 161.477C1082.49 166.568 1079.73 174.559 1079.73 185.449V239.335H1046.71V125.198H1078.25V140.188C1081.36 135.935 1085.31 132.494 1090.11 129.866C1097.59 125.623 1106.69 123.502 1117.41 123.502V154.051Z" fill="#DF6D40"/>
<path d="M1185.93 80.2227C1190.72 80.2227 1195.31 80.718 1199.69 81.708C1204.2 82.698 1208.01 84.2536 1211.12 86.375L1202.44 110.349C1200.6 109.076 1198.56 108.085 1196.3 107.378C1194.04 106.671 1191.64 106.317 1189.1 106.317C1184.3 106.317 1180.56 107.732 1177.88 110.561C1175.34 113.248 1174.07 117.349 1174.07 122.865V127.744H1203.28V153.202H1174.92V239.335H1141.9V153.202H1124.33V127.744H1141.9V122.653C1141.9 109.783 1145.71 99.529 1153.33 91.8916C1160.95 84.1128 1171.81 80.2227 1185.93 80.2227Z" fill="#DF6D40"/>
<path d="M1617.17 122.488C1627.87 122.488 1637.13 124.43 1644.94 128.312C1652.8 132.148 1658.89 137.593 1663.19 144.647C1667.5 151.655 1669.68 159.894 1669.73 169.363H1633.37C1632.84 163.634 1631.19 159.279 1628.39 156.296C1625.65 153.266 1622.1 151.75 1617.74 151.75C1614.33 151.75 1611.35 152.745 1608.79 154.733C1606.23 156.675 1604.25 159.633 1602.83 163.61C1601.4 167.54 1600.69 172.488 1600.69 178.454C1600.69 184.42 1601.4 189.392 1602.83 193.369C1604.25 197.299 1606.23 200.258 1608.79 202.247C1611.35 204.188 1614.33 205.159 1617.74 205.159C1620.63 205.159 1623.18 204.496 1625.41 203.171C1627.64 201.798 1629.44 199.808 1630.81 197.204C1632.23 194.553 1633.08 191.333 1633.37 187.546H1669.73C1669.59 197.157 1667.39 205.538 1663.12 212.688C1658.86 219.79 1652.83 225.282 1645.01 229.165C1637.25 233.048 1627.97 234.988 1617.17 234.988C1605.33 234.988 1595.2 232.645 1586.77 227.957C1578.35 223.222 1571.88 216.641 1567.38 208.213C1562.89 199.738 1560.64 189.912 1560.64 178.738C1560.64 167.564 1562.89 157.763 1567.38 149.335C1571.88 140.86 1578.35 134.278 1586.77 129.591C1595.2 124.856 1605.33 122.488 1617.17 122.488Z" fill="#DF6D40"/>
<path d="M1733.92 122.488C1749.68 122.488 1762.11 125.756 1771.2 132.29C1780.34 138.824 1785.15 147.868 1785.62 159.421H1749.54C1749.35 157.196 1748.57 155.278 1747.2 153.668C1745.82 152.058 1744.05 150.827 1741.87 149.975C1739.74 149.075 1737.37 148.625 1734.77 148.625C1731.41 148.625 1728.52 149.241 1726.1 150.472C1723.69 151.703 1722.5 153.455 1722.55 155.728C1722.5 157.337 1723.19 158.829 1724.61 160.202C1726.08 161.575 1728.9 162.64 1733.06 163.397L1755.22 167.375C1766.4 169.411 1774.71 172.843 1780.15 177.673C1785.64 182.455 1788.41 188.872 1788.46 196.921C1788.41 204.686 1786.09 211.433 1781.5 217.162C1776.96 222.844 1770.73 227.247 1762.82 230.372C1754.96 233.45 1745.99 234.988 1735.9 234.988C1719.24 234.988 1706.19 231.58 1696.77 224.762C1687.4 217.944 1682.16 208.947 1681.07 197.772H1720C1720.52 201.229 1722.22 203.904 1725.11 205.798C1728.04 207.644 1731.74 208.568 1736.19 208.568C1739.79 208.568 1742.75 207.953 1745.07 206.722C1747.43 205.491 1748.64 203.738 1748.69 201.466C1748.64 199.383 1747.6 197.725 1745.56 196.494C1743.57 195.263 1740.45 194.269 1736.19 193.512L1716.87 190.103C1705.74 188.161 1697.41 184.468 1691.87 179.022C1686.33 173.577 1683.58 166.57 1683.63 158C1683.58 150.424 1685.57 144.009 1689.6 138.753C1693.67 133.45 1699.47 129.425 1707 126.679C1714.57 123.885 1723.55 122.488 1733.92 122.488Z" fill="#DF6D40"/>
<path d="M1544.64 233H1505.44V123.909H1544.64V233Z" fill="#DF6D40"/>
<path d="M1525.04 76.75C1530.39 76.7501 1534.93 78.5022 1538.67 82.0059C1542.46 85.5096 1544.36 89.7233 1544.36 94.6475C1544.36 99.5717 1542.46 103.786 1538.67 107.29C1534.93 110.794 1530.39 112.546 1525.04 112.546C1519.74 112.546 1515.19 110.794 1511.4 107.29C1507.61 103.786 1505.72 99.5717 1505.72 94.6475C1505.72 89.7234 1507.61 85.5096 1511.4 82.0059C1515.19 78.5021 1519.74 76.75 1525.04 76.75Z" fill="#DF6D40"/>
</svg>
